<?xml version="1.0" encoding="UTF-8" standalone="no"?>
<svg
   xmlns:dc="http://purl.org/dc/elements/1.1/"
   xmlns:cc="http://creativecommons.org/ns#"
   xmlns:rdf="http://www.w3.org/1999/02/22-rdf-syntax-ns#"
   xmlns:svg="http://www.w3.org/2000/svg"
   xmlns="http://www.w3.org/2000/svg"
   xmlns:xlink="http://www.w3.org/1999/xlink"
   version="1.1"
   x="0px"
   y="0px"
   viewBox="0 0 32 32"
   enable-background="new 0 0 1000 1000"
   xml:space="preserve"
   id="svg14"
   width="32"
   height="32"><defs
   id="defs18"><linearGradient
     id="linearGradient4544"><stop
       style="stop-color:#834d9b;stop-opacity:1"
       offset="0"
       id="stop4540" /><stop
       style="stop-color:#d04ed6;stop-opacity:1"
       offset="1"
       id="stop4542" /></linearGradient><linearGradient
     xlink:href="#linearGradient4544"
     id="linearGradient4546"
     x1="895.28864"
     y1="-274.69168"
     x2="10066.335"
     y2="45.873592"
     gradientUnits="userSpaceOnUse" /><linearGradient
     xlink:href="#linearGradient4544"
     id="linearGradient832"
     x1="1.9745765"
     y1="5.6101694"
     x2="4.9745765"
     y2="5.6101694"
     gradientUnits="userSpaceOnUse"
     gradientTransform="matrix(0.84060479,0,0,0.85094944,9.2161517,5.1333863)" /></defs>
<metadata
   id="metadata2"> Svg Vector Icons : http://www.onlinewebfonts.com/icon <rdf:RDF><cc:Work
     rdf:about=""><dc:format>image/svg+xml</dc:format><dc:type
       rdf:resource="http://purl.org/dc/dcmitype/StillImage" /><dc:title></dc:title></cc:Work></rdf:RDF></metadata>
<g
   id="g10"
   transform="matrix(0.00207913,0,0,-0.00206534,4.7606705,15.487608)"
   style="stroke:none"><path
     id="path4"
     d="m 3444.6,4906.2 c -270,-41.5 -651.7,-184.4 -895.8,-337.5 -306.4,-192.1 -636.1,-534.9 -791.9,-828.3 -135,-254.5 -251.9,-381.7 -371.3,-402.5 -46.7,-10.4 -197.3,-5.2 -332.4,10.4 C 458.6,3415.8 160,3234 105.5,2774.4 43.2,2244.7 510.6,1691.7 1437.5,1190.5 l 249.3,-132.4 -64.9,-54.5 C 1585.6,972.4 1489.5,897.1 1406.4,832.2 1089.6,585.6 796.2,214.3 591.1,-196 100.3,-1177.5 186,-2390 806.6,-3254.7 c 485.6,-675.1 1267.1,-1158 2157.7,-1337.2 423.2,-83.1 843.9,-114.2 1544.9,-114.2 685.5,0 981.5,20.8 1531.9,114.2 1690.3,283 2887.3,1067.2 3466.3,2269.4 579,1204.8 511.5,2703 -163.6,3705.2 -155.8,231.1 -405.1,488.1 -566,581.6 -199.9,116.8 -296,57.1 -563.4,-355.7 -189.6,-290.8 -402.5,-485.5 -675.1,-618 -363.5,-179.2 -781.6,-254.5 -1290.5,-228.5 -293.4,15.6 -727,77.9 -794.6,116.8 -23.3,13 2.6,62.3 101.3,179.2 376.5,444 563.4,952.9 563.4,1526.7 0,934.7 -516.7,1739.7 -1365.8,2131.7 -365.9,171.5 -913.8,249.4 -1308.5,189.7 z m 927,-485.6 c 329.7,-111.7 532.3,-238.9 791.9,-498.5 186.9,-189.5 241.5,-264.8 340.1,-470 64.9,-135 137.6,-322 161,-418 54.5,-231.1 54.5,-667.3 -2.6,-898.4 -57.1,-244.1 -215.5,-560.8 -371.3,-745.2 -283,-337.5 -334.9,-488.1 -231.1,-688.1 44.1,-83.1 90.9,-129.8 176.6,-174 238.9,-116.8 924.4,-207.7 1376.2,-179.2 921.7,59.8 1508.6,361 1918.8,989.4 64.9,101.3 122,187 124.6,192.1 20.8,28.6 231.1,-210.3 358.3,-402.5 592,-882.8 633.6,-2259 96.1,-3320.9 -309,-612.8 -869.8,-1158.1 -1534.6,-1493 -475.2,-236.3 -1152.8,-441.4 -1755.2,-529.7 -976.3,-145.4 -2357.6,-103.9 -3043.1,88.3 -981.5,272.6 -1747.5,997 -2009.7,1898 -77.9,275.3 -98.7,867.2 -36.4,1168.4 140.3,695.9 488.2,1243.8 1064.6,1674.9 254.5,189.5 324.6,288.2 324.6,449.2 0,202.5 -85.7,290.8 -441.4,470 -732.2,366.1 -1199.6,841.3 -1160.6,1184 7.8,75.3 33.8,140.2 67.5,176.6 51.9,49.3 77.9,54.5 309,44.2 519.3,-23.4 607.6,-15.6 727,46.7 187,96.1 322,241.5 459.6,498.5 275.2,511.5 766,880.2 1334.6,999.7 275.2,57 672.5,31 955.5,-62.5 z"
     style="fill:url(#linearGradient4546);fill-opacity:1;stroke:none" /><path
     id="path6"
     d="m 2663.1,3252.2 c -483,-251.9 -475.2,-937.3 15.6,-1163.2 238.9,-111.6 506.3,-72.7 706.3,103.9 155.8,137.6 215.5,267.4 215.5,482.9 0,215.5 -59.7,345.3 -215.5,483 -210.4,184.3 -480.4,220.6 -721.9,93.4 z m 423.2,-371.3 c 28.5,-15.6 67.5,-67.5 88.3,-116.8 103.9,-246.7 -218.1,-446.6 -389.5,-241.5 -39,44.1 -67.5,111.6 -67.5,153.2 0,114.2 114.2,233.7 225.9,233.7 49.3,0 111.7,-13 142.8,-28.6 z"
     style="stroke:none" /></g>
<ellipse
   style="fill:#ffffff;fill-opacity:0;stroke:none;stroke-opacity:1"
   id="path840"
   cx="11.20339"
   cy="8.2542372"
   rx="1.8474576"
   ry="0.3898305" /><g
   id="layer2"><ellipse
     style="fill:#ffffff;fill-opacity:1;stroke:none;stroke-opacity:1"
     id="path842"
     cx="11.186441"
     cy="10.338983"
     rx="2"
     ry="2.0338984" /></g><g
   id="layer1"><ellipse
     id="path19"
     cx="12.136896"
     cy="9.9073553"
     rx="0.96671754"
     ry="0.94976848"
     style="fill:none;stroke:url(#linearGradient832);stroke-width:0.5919885;stroke-opacity:1" /></g><ellipse
   style="fill:none;fill-opacity:1;stroke:none;stroke-opacity:1"
   id="path848"
   cx="15.08894"
   cy="19.991169"
   rx="7.059083"
   ry="2.9482758" /></svg>